<?xml version="1.0" encoding="UTF-8" standalone="no"?>
<svg
   xmlns:dc="http://purl.org/dc/elements/1.1/"
   xmlns:cc="http://creativecommons.org/ns#"
   xmlns:rdf="http://www.w3.org/1999/02/22-rdf-syntax-ns#"
   xmlns:svg="http://www.w3.org/2000/svg"
   xmlns="http://www.w3.org/2000/svg"
   xmlns:sodipodi="http://sodipodi.sourceforge.net/DTD/sodipodi-0.dtd"
   xmlns:inkscape="http://www.inkscape.org/namespaces/inkscape"
   id="Layer_1"
   data-name="Layer 1"
   viewBox="0 0 283.46 283.46"
   version="1.1"
   sodipodi:docname="grid-counting.svg"
   inkscape:version="1.0.2 (e86c870879, 2021-01-15)">
  <metadata
     id="metadata2824">
    <rdf:RDF>
      <cc:Work
         rdf:about="">
        <dc:format>image/svg+xml</dc:format>
        <dc:type
           rdf:resource="http://purl.org/dc/dcmitype/StillImage" />
        <dc:title>grid_counting</dc:title>
      </cc:Work>
    </rdf:RDF>
  </metadata>
  <sodipodi:namedview
     pagecolor="#ffffff"
     bordercolor="#666666"
     borderopacity="1"
     objecttolerance="10"
     gridtolerance="10"
     guidetolerance="10"
     inkscape:pageopacity="1"
     inkscape:pageshadow="2"
     inkscape:window-width="1920"
     inkscape:window-height="1009"
     id="namedview2822"
     showgrid="false"
     inkscape:pagecheckerboard="true"
     inkscape:zoom="2.454075"
     inkscape:cx="115.35787"
     inkscape:cy="145.8523"
     inkscape:window-x="0"
     inkscape:window-y="0"
     inkscape:window-maximized="1"
     inkscape:current-layer="Layer_1" />
  <defs
     id="defs2619">
    <style
       id="style2617">.cls-1,.cls-3{fill:none;stroke:#fff;stroke-miterlimit:10;}.cls-1{stroke-width:3px;}.cls-2{fill:#fff;}.cls-3{stroke-width:2px;}</style>
  </defs>
  <title
     id="title2621">grid_counting</title>
  <polyline
     class="cls-1"
     points="20.25 275.29 20.25 17.05 280.57 17.05"
     id="polyline2623"
     style="stroke:#000004;stroke-opacity:1" />
  <polyline
     class="cls-1"
     points="30.28 270.52 19.72 281 9.15 270.52"
     id="polyline2625"
     style="stroke:#000000;stroke-opacity:1" />
  <polyline
     class="cls-1"
     points="270.44 6.04 281 16.52 270.44 26.99"
     id="polyline2627"
     style="stroke:#000000;stroke-opacity:1" />
  <polyline
     class="cls-1"
     points="20.36 218.01 20.36 17.25 216.72 17.25"
     id="polyline2629"
     style="stroke:#000000;stroke-opacity:1" />
  <line
     class="cls-1"
     x1="20.36"
     y1="177.86"
     x2="216.72"
     y2="177.86"
     id="line2631"
     style="stroke:#000004;stroke-opacity:1" />
  <line
     class="cls-1"
     x1="20.36"
     y1="137.7"
     x2="216.72"
     y2="137.7"
     id="line2633"
     style="stroke:#000004;stroke-opacity:1" />
  <line
     class="cls-1"
     x1="20.36"
     y1="97.55"
     x2="216.72"
     y2="97.55"
     id="line2635"
     style="stroke:#000004;stroke-opacity:1" />
  <line
     class="cls-1"
     x1="20.36"
     y1="57.4"
     x2="216.72"
     y2="57.4"
     id="line2637"
     style="stroke:#000004;stroke-opacity:1" />
  <line
     class="cls-1"
     x1="177.45"
     y1="17.25"
     x2="177.45"
     y2="218.01"
     id="line2639"
     style="stroke:#000004;stroke-opacity:1" />
  <line
     class="cls-1"
     x1="138.18"
     y1="17.25"
     x2="138.18"
     y2="218.01"
     id="line2641"
     style="stroke:#000004;stroke-opacity:1" />
  <line
     class="cls-1"
     x1="98.91"
     y1="17.25"
     x2="98.91"
     y2="218.01"
     id="line2643"
     style="stroke:#000004;stroke-opacity:1" />
  <line
     class="cls-1"
     x1="59.63"
     y1="17.25"
     x2="59.63"
     y2="218.01"
     id="line2645"
     style="stroke:#000004;stroke-opacity:1" />
  <circle
     class="cls-2"
     cx="187.36"
     cy="37.32"
     r="3.5"
     id="circle2647"
     style="fill:#000000;fill-opacity:1" />
  <circle
     class="cls-2"
     cx="207.19"
     cy="37.32"
     r="3.5"
     id="circle2649"
     style="fill:#000000;fill-opacity:1" />
  <circle
     class="cls-2"
     cx="197.27"
     cy="37.32"
     r="3.5"
     id="circle2651"
     style="fill:#000000;fill-opacity:1" />
  <circle
     class="cls-2"
     cx="190.07"
     cy="190.92"
     r="3.5"
     transform="translate(-79.33 190.32) rotate(-45)"
     id="circle2653"
     style="fill:#000000;fill-opacity:1" />
  <circle
     class="cls-2"
     cx="204.1"
     cy="204.95"
     r="3.5"
     transform="translate(-85.14 204.35) rotate(-45)"
     id="circle2655"
     style="fill:#000000;fill-opacity:1" />
  <circle
     class="cls-2"
     cx="197.09"
     cy="197.93"
     r="3.5"
     transform="translate(-82.23 197.33) rotate(-45)"
     id="circle2657"
     style="fill:#000000;fill-opacity:1" />
  <circle
     class="cls-2"
     cx="157.81"
     cy="208.21"
     r="3.5"
     id="circle2659"
     style="fill:#000000;fill-opacity:1" />
  <circle
     class="cls-2"
     cx="157.81"
     cy="188.37"
     r="3.5"
     id="circle2661"
     style="fill:#000000;fill-opacity:1" />
  <circle
     class="cls-2"
     cx="157.81"
     cy="198.29"
     r="3.5"
     id="circle2663"
     style="fill:#000000;fill-opacity:1" />
  <circle
     class="cls-2"
     cx="187.36"
     cy="157.78"
     r="3.5"
     id="circle2665"
     style="fill:#000000;fill-opacity:1" />
  <circle
     class="cls-2"
     cx="207.19"
     cy="157.78"
     r="3.5"
     id="circle2667"
     style="fill:#000000;fill-opacity:1" />
  <circle
     class="cls-2"
     cx="197.27"
     cy="157.78"
     r="3.5"
     id="circle2669"
     style="fill:#000000;fill-opacity:1" />
  <circle
     class="cls-2"
     cx="187.36"
     cy="117.63"
     r="3.5"
     id="circle2671"
     style="fill:#000000;fill-opacity:1" />
  <circle
     class="cls-2"
     cx="207.19"
     cy="117.63"
     r="3.5"
     id="circle2673"
     style="fill:#000000;fill-opacity:1" />
  <circle
     class="cls-2"
     cx="197.27"
     cy="117.63"
     r="3.5"
     id="circle2675"
     style="fill:#000000;fill-opacity:1" />
  <circle
     class="cls-2"
     cx="187.36"
     cy="77.18"
     r="3.5"
     id="circle2677"
     style="fill:#000000;fill-opacity:1" />
  <circle
     class="cls-2"
     cx="207.19"
     cy="77.18"
     r="3.5"
     id="circle2679"
     style="fill:#000000;fill-opacity:1" />
  <circle
     class="cls-2"
     cx="197.27"
     cy="77.18"
     r="3.5"
     id="circle2681"
     style="fill:#000000;fill-opacity:1" />
  <circle
     class="cls-2"
     cx="118.54"
     cy="208.21"
     r="3.5"
     id="circle2683"
     style="fill:#000000;fill-opacity:1" />
  <circle
     class="cls-2"
     cx="118.54"
     cy="188.37"
     r="3.5"
     id="circle2685"
     style="fill:#000000;fill-opacity:1" />
  <circle
     class="cls-2"
     cx="118.54"
     cy="198.29"
     r="3.5"
     id="circle2687"
     style="fill:#000000;fill-opacity:1" />
  <circle
     class="cls-2"
     cx="79.27"
     cy="208.21"
     r="3.5"
     id="circle2689"
     style="fill:#000000;fill-opacity:1" />
  <circle
     class="cls-2"
     cx="79.27"
     cy="188.37"
     r="3.5"
     id="circle2691"
     style="fill:#000000;fill-opacity:1" />
  <circle
     class="cls-2"
     cx="79.27"
     cy="198.29"
     r="3.5"
     id="circle2693"
     style="fill:#000000;fill-opacity:1" />
  <circle
     class="cls-2"
     cx="40"
     cy="208.21"
     r="3.5"
     id="circle2695"
     style="fill:#000000;fill-opacity:1" />
  <circle
     class="cls-2"
     cx="40"
     cy="188.37"
     r="3.5"
     id="circle2697"
     style="fill:#000000;fill-opacity:1" />
  <circle
     class="cls-2"
     cx="40"
     cy="198.29"
     r="3.5"
     id="circle2699"
     style="fill:#000000;fill-opacity:1" />
  <polyline
     class="cls-3"
     points="216.9 49.62 224.32 57.04 216.9 64.47"
     id="polyline2701"
     style="stroke:#000004;stroke-opacity:1" />
  <polyline
     class="cls-3"
     points="66.86 218.01 59.44 225.43 52.01 218.01"
     id="polyline2703"
     style="stroke:#000004;stroke-opacity:1" />
  <polyline
     class="cls-3"
     points="106.52 218.01 99.09 225.43 91.67 218.01"
     id="polyline2705"
     style="stroke:#000004;stroke-opacity:1" />
  <polyline
     class="cls-3"
     points="146.18 218.01 138.75 225.43 131.33 218.01"
     id="polyline2707"
     style="stroke:#000004;stroke-opacity:1" />
  <polyline
     class="cls-3"
     points="184.67 218.01 177.24 225.43 169.82 218.01"
     id="polyline2709"
     style="stroke:#000004;stroke-opacity:1" />
  <polyline
     class="cls-3"
     points="216.9 90.44 224.32 97.87 216.9 105.29"
     id="polyline2711"
     style="stroke:#000004;stroke-opacity:1" />
  <polyline
     class="cls-3"
     points="216.9 130.1 224.32 137.53 216.9 144.95"
     id="polyline2713"
     style="stroke:#000004;stroke-opacity:1" />
  <polyline
     class="cls-3"
     points="216.9 170.93 224.32 178.35 216.9 185.77"
     id="polyline2715"
     style="stroke:#000004;stroke-opacity:1" />
  <path
     class="cls-2"
     d="M23.14,1.44V8.29h2a.44.44,0,0,1,.29.08.26.26,0,0,1,.09.21.27.27,0,0,1-.09.21.43.43,0,0,1-.29.08H20.6a.43.43,0,0,1-.29-.08.27.27,0,0,1-.09-.21.26.26,0,0,1,.09-.21.44.44,0,0,1,.29-.08h2V1.44h-2a.44.44,0,0,1-.29-.08.26.26,0,0,1-.09-.21.26.26,0,0,1,.09-.21A.44.44,0,0,1,20.6.87h4.51a.44.44,0,0,1,.29.08.26.26,0,0,1,.09.21.26.26,0,0,1-.09.21.44.44,0,0,1-.29.08Z"
     id="path2717"
     style="fill:#000000;fill-opacity:1" />
  <path
     class="cls-2"
     d="M29.4,2.95v.87A4.14,4.14,0,0,1,30.48,3a2.5,2.5,0,0,1,1.09-.23,2.56,2.56,0,0,1,1.2.28,2,2,0,0,1,.69.68,1.76,1.76,0,0,1,.31,1V8.29h.49a.44.44,0,0,1,.29.08.26.26,0,0,1,.09.21.27.27,0,0,1-.09.21.43.43,0,0,1-.29.08H32.72a.44.44,0,0,1-.3-.08.27.27,0,0,1-.09-.21.26.26,0,0,1,.09-.21.45.45,0,0,1,.3-.08h.48V4.77a1.36,1.36,0,0,0-.44-1,1.66,1.66,0,0,0-1.19-.42,2,2,0,0,0-1,.23A5.28,5.28,0,0,0,29.4,4.69v3.6H30a.44.44,0,0,1,.29.08.26.26,0,0,1,.09.21.27.27,0,0,1-.09.21.43.43,0,0,1-.29.08H28.17a.43.43,0,0,1-.29-.08.27.27,0,0,1-.09-.21.26.26,0,0,1,.09-.21.44.44,0,0,1,.29-.08h.65V3.53h-.49A.43.43,0,0,1,28,3.44.28.28,0,0,1,28,3.23.27.27,0,0,1,28,3a.43.43,0,0,1,.29-.08Z"
     id="path2719"
     style="fill:#000000;fill-opacity:1" />
  <path
     class="cls-2"
     d="M42.46.29v8h.77a.45.45,0,0,1,.3.08.26.26,0,0,1,.09.21.27.27,0,0,1-.09.21.44.44,0,0,1-.3.08H41.88V7.72a3,3,0,0,1-2.54,1.37A3,3,0,0,1,36.73,7.5a3.23,3.23,0,0,1,0-3.16,3,3,0,0,1,1.13-1.18,2.93,2.93,0,0,1,1.5-.42,3.06,3.06,0,0,1,2.53,1.37V.87h-.77a.44.44,0,0,1-.3-.08.28.28,0,0,1-.09-.21.27.27,0,0,1,.09-.21.44.44,0,0,1,.3-.08Zm-.58,5.63a2.53,2.53,0,0,0-.74-1.85,2.44,2.44,0,0,0-3.52,0,2.53,2.53,0,0,0-.74,1.85,2.54,2.54,0,0,0,.74,1.84,2.43,2.43,0,0,0,3.52,0A2.54,2.54,0,0,0,41.88,5.92Z"
     id="path2721"
     style="fill:#000000;fill-opacity:1" />
  <path
     class="cls-2"
     d="M51.16,6H45.31a2.78,2.78,0,0,0,.93,1.79,2.85,2.85,0,0,0,1.94.68,4.67,4.67,0,0,0,1.35-.21,3.46,3.46,0,0,0,1.15-.56.39.39,0,0,1,.23-.1.26.26,0,0,1,.19.09.28.28,0,0,1,.08.2.32.32,0,0,1-.11.23,3.07,3.07,0,0,1-1.17.64,5.1,5.1,0,0,1-1.72.3,3.38,3.38,0,0,1-2.46-1,3.16,3.16,0,0,1-1-2.34,2.88,2.88,0,0,1,.93-2.15,3.17,3.17,0,0,1,2.29-.9,3.12,3.12,0,0,1,2.32.92A3.2,3.2,0,0,1,51.16,6Zm-.58-.58a2.5,2.5,0,0,0-.9-1.54,2.83,2.83,0,0,0-3.46,0,2.52,2.52,0,0,0-.9,1.55Z"
     id="path2723"
     style="fill:#000000;fill-opacity:1" />
  <path
     class="cls-2"
     d="M56.84,5.77l2.63,2.52a1.32,1.32,0,0,1,.33,0,.24.24,0,0,1,.12.1.29.29,0,0,1,.05.16.27.27,0,0,1-.09.21.44.44,0,0,1-.3.08H57.74a.44.44,0,0,1-.3-.08.27.27,0,0,1-.09-.21.26.26,0,0,1,.09-.21.45.45,0,0,1,.3-.08h.95L56.45,6.15,54.23,8.29h1a.44.44,0,0,1,.29.08.26.26,0,0,1,.09.21.27.27,0,0,1-.09.21.43.43,0,0,1-.29.08H53.32A.43.43,0,0,1,53,8.78a.27.27,0,0,1-.09-.21A.29.29,0,0,1,53,8.41a.25.25,0,0,1,.12-.1,1.27,1.27,0,0,1,.32,0l2.63-2.52L53.73,3.53a1,1,0,0,1-.31,0,.27.27,0,0,1-.12-.1.29.29,0,0,1-.05-.16A.27.27,0,0,1,53.34,3a.44.44,0,0,1,.3-.08H55.2a.43.43,0,0,1,.3.08.28.28,0,0,1,.09.21.27.27,0,0,1-.09.21.43.43,0,0,1-.3.08h-.68l1.93,1.87L58.4,3.53h-.68a.44.44,0,0,1-.3-.08.27.27,0,0,1-.09-.21A.27.27,0,0,1,57.42,3a.44.44,0,0,1,.3-.08h1.57a.43.43,0,0,1,.29.08.28.28,0,0,1,0,.37.27.27,0,0,1-.12.1,1,1,0,0,1-.31,0Z"
     id="path2725"
     style="fill:#000000;fill-opacity:1" />
  <path
     class="cls-2"
     d="M73.55,2.95V8.29h2.26a.45.45,0,0,1,.3.08.26.26,0,0,1,.09.21.27.27,0,0,1-.09.21.44.44,0,0,1-.3.08H70.72a.43.43,0,0,1-.29-.08.27.27,0,0,1-.09-.21.26.26,0,0,1,.09-.21.44.44,0,0,1,.29-.08H73V3.53H71.31a.44.44,0,0,1-.3-.08.26.26,0,0,1-.09-.21A.28.28,0,0,1,71,3a.44.44,0,0,1,.3-.08Zm0-2.95V1.48h-.85V0Z"
     id="path2727"
     style="fill:#000000;fill-opacity:1" />
  <path
     class="cls-2"
     d="M79.79,2.95v.87A4.14,4.14,0,0,1,80.88,3,2.5,2.5,0,0,1,82,2.74a2.56,2.56,0,0,1,1.2.28,2,2,0,0,1,.69.68,1.76,1.76,0,0,1,.31,1V8.29h.49a.44.44,0,0,1,.29.08.26.26,0,0,1,.09.21.27.27,0,0,1-.09.21.43.43,0,0,1-.29.08H83.12a.44.44,0,0,1-.3-.08.27.27,0,0,1-.09-.21.26.26,0,0,1,.09-.21.45.45,0,0,1,.3-.08h.48V4.77a1.36,1.36,0,0,0-.44-1A1.66,1.66,0,0,0,82,3.32a2,2,0,0,0-1,.23,5.28,5.28,0,0,0-1.19,1.14v3.6h.65a.44.44,0,0,1,.29.08.26.26,0,0,1,.09.21.27.27,0,0,1-.09.21.43.43,0,0,1-.29.08H78.57a.43.43,0,0,1-.29-.08.27.27,0,0,1-.09-.21.26.26,0,0,1,.09-.21.44.44,0,0,1,.29-.08h.65V3.53h-.49a.43.43,0,0,1-.29-.08.28.28,0,0,1-.09-.21A.27.27,0,0,1,78.44,3a.43.43,0,0,1,.29-.08Z"
     id="path2729"
     style="fill:#000000;fill-opacity:1" />
  <path
     class="cls-2"
     d="M100.34,3.32a.42.42,0,0,1,.08-.29.27.27,0,0,1,.21-.09.28.28,0,0,1,.21.09.44.44,0,0,1,.08.3v1a.43.43,0,0,1-.08.29.28.28,0,0,1-.21.09.27.27,0,0,1-.19-.08.37.37,0,0,1-.09-.25.92.92,0,0,0-.42-.68,2.58,2.58,0,0,0-1.48-.38,2.5,2.5,0,0,0-1.5.39.82.82,0,0,0-.4.66.79.79,0,0,0,.48.68,3.54,3.54,0,0,0,1.24.29,8.46,8.46,0,0,1,1.66.29,2.1,2.1,0,0,1,1,.66,1.48,1.48,0,0,1,.32.92,1.66,1.66,0,0,1-.7,1.3,3.22,3.22,0,0,1-2.06.57,3.47,3.47,0,0,1-2.23-.69,1,1,0,0,1,0,.3.25.25,0,0,1-.1.12.28.28,0,0,1-.16,0,.27.27,0,0,1-.21-.09.43.43,0,0,1-.08-.29V7.3A.44.44,0,0,1,95.74,7,.26.26,0,0,1,96,6.92a.28.28,0,0,1,.21.09.31.31,0,0,1,.09.23.86.86,0,0,0,.16.53,1.73,1.73,0,0,0,.76.54,3.37,3.37,0,0,0,1.28.22,2.74,2.74,0,0,0,1.67-.42,1.15,1.15,0,0,0,.55-.88,1,1,0,0,0-.55-.85,4.22,4.22,0,0,0-1.63-.43,6.62,6.62,0,0,1-1.53-.29,1.56,1.56,0,0,1-.72-.53A1.27,1.27,0,0,1,96,4.35a1.32,1.32,0,0,1,.72-1.17,3.3,3.3,0,0,1,1.73-.43A3.05,3.05,0,0,1,100.34,3.32Z"
     id="path2731"
     style="fill:#000000;fill-opacity:1" />
  <path
     class="cls-2"
     d="M110,6H104.1A2.78,2.78,0,0,0,105,7.84a2.85,2.85,0,0,0,1.94.68,4.67,4.67,0,0,0,1.35-.21,3.46,3.46,0,0,0,1.15-.56.39.39,0,0,1,.23-.1.26.26,0,0,1,.19.09.28.28,0,0,1,.08.2.32.32,0,0,1-.11.23,3.07,3.07,0,0,1-1.17.64,5.1,5.1,0,0,1-1.72.3,3.38,3.38,0,0,1-2.46-1,3.16,3.16,0,0,1-1-2.34,2.88,2.88,0,0,1,.93-2.15,3.17,3.17,0,0,1,2.29-.9,3.12,3.12,0,0,1,2.32.92A3.2,3.2,0,0,1,110,6Zm-.58-.58a2.5,2.5,0,0,0-.9-1.54,2.83,2.83,0,0,0-3.46,0,2.52,2.52,0,0,0-.9,1.55Z"
     id="path2733"
     style="fill:#000000;fill-opacity:1" />
  <path
     class="cls-2"
     d="M117.18,4V2.95h1.35a.43.43,0,0,1,.29.08.28.28,0,0,1,.09.21.27.27,0,0,1-.09.21.43.43,0,0,1-.29.08h-.77V9.26a2.11,2.11,0,0,1-.25,1,2.27,2.27,0,0,1-.55.62,3,3,0,0,1-.7.46,2.14,2.14,0,0,1-.84.14h-1.63a.44.44,0,0,1-.29-.08.26.26,0,0,1-.09-.21.28.28,0,0,1,.09-.21.43.43,0,0,1,.29-.08h1.65a1.66,1.66,0,0,0,.91-.26,2,2,0,0,0,.67-.76,1.57,1.57,0,0,0,.15-.73V7.46a2.82,2.82,0,0,1-2.38,1.26,2.75,2.75,0,0,1-2-.88,2.92,2.92,0,0,1-.86-2.12,2.91,2.91,0,0,1,.86-2.11,2.76,2.76,0,0,1,2-.87A2.83,2.83,0,0,1,117.18,4Zm0,1.73A2.33,2.33,0,0,0,116.48,4a2.31,2.31,0,0,0-3.31,0,2.34,2.34,0,0,0-.69,1.71,2.35,2.35,0,0,0,.69,1.71,2.31,2.31,0,0,0,3.31,0A2.34,2.34,0,0,0,117.18,5.73Z"
     id="path2735"
     style="fill:#000000;fill-opacity:1" />
  <path
     class="cls-2"
     d="M121,2.95v.58a2.06,2.06,0,0,1,1.47-.79,1.32,1.32,0,0,1,.78.24,1.77,1.77,0,0,1,.56.71,3,3,0,0,1,.78-.71,1.52,1.52,0,0,1,.79-.24,1.28,1.28,0,0,1,1,.4,1.63,1.63,0,0,1,.49,1.13v4h.49a.44.44,0,0,1,.29.08.26.26,0,0,1,.09.21.27.27,0,0,1-.09.21.43.43,0,0,1-.29.08h-1.06V4.33a1,1,0,0,0-.27-.72.82.82,0,0,0-.62-.29,1.19,1.19,0,0,0-.66.24,3.27,3.27,0,0,0-.79.93V8.29h.48a.44.44,0,0,1,.29.08.26.26,0,0,1,.09.21.27.27,0,0,1-.09.21.43.43,0,0,1-.29.08h-1.06V4.37a1.08,1.08,0,0,0-.27-.76.8.8,0,0,0-.6-.3,1.1,1.1,0,0,0-.61.2,3.49,3.49,0,0,0-.87,1V8.29h.49a.44.44,0,0,1,.29.08.26.26,0,0,1,.09.21.27.27,0,0,1-.09.21.43.43,0,0,1-.29.08H120a.43.43,0,0,1-.29-.08.27.27,0,0,1-.09-.21.26.26,0,0,1,.09-.21.44.44,0,0,1,.29-.08h.49V3.53H120a.43.43,0,0,1-.29-.08.28.28,0,0,1-.09-.21.27.27,0,0,1,.09-.21.43.43,0,0,1,.29-.08Z"
     id="path2737"
     style="fill:#000000;fill-opacity:1" />
  <path
     class="cls-2"
     d="M135.15,6H129.3a2.78,2.78,0,0,0,.93,1.79,2.85,2.85,0,0,0,1.94.68,4.67,4.67,0,0,0,1.35-.21,3.46,3.46,0,0,0,1.15-.56.39.39,0,0,1,.23-.1.26.26,0,0,1,.19.09.28.28,0,0,1,.08.2.32.32,0,0,1-.11.23,3.07,3.07,0,0,1-1.17.64,5.1,5.1,0,0,1-1.72.3,3.38,3.38,0,0,1-2.46-1,3.16,3.16,0,0,1-1-2.34,2.88,2.88,0,0,1,.93-2.15,3.17,3.17,0,0,1,2.29-.9,3.12,3.12,0,0,1,2.32.92A3.2,3.2,0,0,1,135.15,6Zm-.58-.58a2.5,2.5,0,0,0-.9-1.54,2.83,2.83,0,0,0-3.46,0,2.52,2.52,0,0,0-.9,1.55Z"
     id="path2739"
     style="fill:#000000;fill-opacity:1" />
  <path
     class="cls-2"
     d="M138.59,2.95v.87A4.14,4.14,0,0,1,139.68,3a2.5,2.5,0,0,1,1.09-.23A2.56,2.56,0,0,1,142,3a2,2,0,0,1,.69.68,1.76,1.76,0,0,1,.31,1V8.29h.49a.44.44,0,0,1,.29.08.26.26,0,0,1,.09.21.27.27,0,0,1-.09.21.43.43,0,0,1-.29.08h-1.54a.44.44,0,0,1-.3-.08.27.27,0,0,1-.09-.21.26.26,0,0,1,.09-.21.45.45,0,0,1,.3-.08h.48V4.77a1.36,1.36,0,0,0-.44-1,1.66,1.66,0,0,0-1.19-.42,2,2,0,0,0-1,.23,5.28,5.28,0,0,0-1.19,1.14v3.6h.65a.44.44,0,0,1,.29.08.26.26,0,0,1,.09.21.27.27,0,0,1-.09.21.43.43,0,0,1-.29.08h-1.87a.43.43,0,0,1-.29-.08.27.27,0,0,1-.09-.21.26.26,0,0,1,.09-.21.44.44,0,0,1,.29-.08H138V3.53h-.49a.43.43,0,0,1-.29-.08.28.28,0,0,1-.09-.21.27.27,0,0,1,.09-.21.43.43,0,0,1,.29-.08Z"
     id="path2741"
     style="fill:#000000;fill-opacity:1" />
  <path
     class="cls-2"
     d="M147.67,2.95h3.12a.43.43,0,0,1,.29.08.28.28,0,0,1,.09.21.27.27,0,0,1-.09.21.43.43,0,0,1-.29.08h-3.12V7.35a1,1,0,0,0,.4.83,1.78,1.78,0,0,0,1.17.33,5.06,5.06,0,0,0,1.26-.17,4.26,4.26,0,0,0,1.05-.39.45.45,0,0,1,.23-.09.26.26,0,0,1,.19.09.28.28,0,0,1,.08.2.27.27,0,0,1-.09.19,2.86,2.86,0,0,1-1.06.49,5.43,5.43,0,0,1-1.62.26,2.5,2.5,0,0,1-1.6-.47,1.54,1.54,0,0,1-.59-1.27V3.53H146a.43.43,0,0,1-.29-.08.28.28,0,0,1-.09-.21.27.27,0,0,1,.09-.21.43.43,0,0,1,.29-.08h1.06V1.25a.43.43,0,0,1,.08-.29.27.27,0,0,1,.21-.09.28.28,0,0,1,.21.09.43.43,0,0,1,.08.29Z"
     id="path2743"
     style="fill:#000000;fill-opacity:1" />
  <path
     class="cls-2"
     d="M3.84,145.78h6.85v-2a.44.44,0,0,1,.08-.29.26.26,0,0,1,.21-.09.27.27,0,0,1,.21.09.43.43,0,0,1,.08.29v4.51a.43.43,0,0,1-.08.29.27.27,0,0,1-.21.09.26.26,0,0,1-.21-.09.44.44,0,0,1-.08-.29v-2H3.84v2a.44.44,0,0,1-.08.29.29.29,0,0,1-.42,0,.44.44,0,0,1-.08-.29v-4.51a.44.44,0,0,1,.08-.29.29.29,0,0,1,.42,0,.44.44,0,0,1,.08.29Z"
     id="path2745"
     style="fill:#000000;fill-opacity:1" />
  <path
     class="cls-2"
     d="M5.34,139.53h.87a4.14,4.14,0,0,1-.84-1.09,2.5,2.5,0,0,1-.23-1.09,2.56,2.56,0,0,1,.28-1.2,2,2,0,0,1,.68-.69,1.76,1.76,0,0,1,1-.31h3.62v-.49a.44.44,0,0,1,.08-.29.26.26,0,0,1,.21-.09.27.27,0,0,1,.21.09.43.43,0,0,1,.08.29v1.54a.44.44,0,0,1-.08.3.27.27,0,0,1-.21.09.26.26,0,0,1-.21-.09.45.45,0,0,1-.08-.3v-.48H7.17a1.36,1.36,0,0,0-1,.44,1.66,1.66,0,0,0-.42,1.19,2,2,0,0,0,.23,1,5.28,5.28,0,0,0,1.14,1.19h3.6v-.65a.44.44,0,0,1,.08-.29.26.26,0,0,1,.21-.09.27.27,0,0,1,.21.09.43.43,0,0,1,.08.29v1.87a.43.43,0,0,1-.08.29.27.27,0,0,1-.21.09.26.26,0,0,1-.21-.09.44.44,0,0,1-.08-.29v-.65H5.93v.49a.43.43,0,0,1-.08.29.28.28,0,0,1-.21.09.27.27,0,0,1-.21-.09.43.43,0,0,1-.08-.29Z"
     id="path2747"
     style="fill:#000000;fill-opacity:1" />
  <path
     class="cls-2"
     d="M2.69,126.46h8v-.77a.45.45,0,0,1,.08-.3.26.26,0,0,1,.21-.09.27.27,0,0,1,.21.09.44.44,0,0,1,.08.3V127H10.12a3,3,0,0,1,1.37,2.54A3,3,0,0,1,9.9,132.2a3.23,3.23,0,0,1-3.16,0,3,3,0,0,1-1.18-1.13,2.93,2.93,0,0,1-.42-1.5A3.06,3.06,0,0,1,6.51,127H3.27v.77a.44.44,0,0,1-.08.3.28.28,0,0,1-.21.09.27.27,0,0,1-.21-.09.44.44,0,0,1-.08-.3Zm5.63.58a2.53,2.53,0,0,0-1.85.74,2.44,2.44,0,0,0,0,3.52,2.53,2.53,0,0,0,1.85.74,2.54,2.54,0,0,0,1.84-.74,2.43,2.43,0,0,0,0-3.52A2.54,2.54,0,0,0,8.32,127Z"
     id="path2749"
     style="fill:#000000;fill-opacity:1" />
  <path
     class="cls-2"
     d="M8.44,117.77v5.85a2.78,2.78,0,0,0,1.79-.93,2.85,2.85,0,0,0,.68-1.94,4.67,4.67,0,0,0-.21-1.35,3.46,3.46,0,0,0-.56-1.15A.39.39,0,0,1,10,118a.26.26,0,0,1,.09-.19.28.28,0,0,1,.2-.08.32.32,0,0,1,.23.11,3.07,3.07,0,0,1,.64,1.17,5.1,5.1,0,0,1,.3,1.72,3.38,3.38,0,0,1-1,2.46,3.16,3.16,0,0,1-2.34,1A2.88,2.88,0,0,1,6,123.27a3.17,3.17,0,0,1-.9-2.29,3.12,3.12,0,0,1,.92-2.32A3.2,3.2,0,0,1,8.44,117.77Zm-.58.58a2.5,2.5,0,0,0-1.54.9,2.83,2.83,0,0,0,0,3.46,2.52,2.52,0,0,0,1.55.9Z"
     id="path2751"
     style="fill:#000000;fill-opacity:1" />
  <path
     class="cls-2"
     d="M8.17,112.08l2.52-2.63a1.32,1.32,0,0,1,0-.33.24.24,0,0,1,.1-.12A.29.29,0,0,1,11,109a.27.27,0,0,1,.21.09.44.44,0,0,1,.08.3v1.85a.44.44,0,0,1-.08.3.27.27,0,0,1-.21.09.26.26,0,0,1-.21-.09.45.45,0,0,1-.08-.3v-.95l-2.14,2.23,2.14,2.22v-1a.44.44,0,0,1,.08-.29.26.26,0,0,1,.21-.09.27.27,0,0,1,.21.09.43.43,0,0,1,.08.29v1.87a.43.43,0,0,1-.08.29A.27.27,0,0,1,11,116a.29.29,0,0,1-.16-.05.25.25,0,0,1-.1-.12,1.27,1.27,0,0,1,0-.32l-2.52-2.63L5.93,115.2a1,1,0,0,1,0,.31.27.27,0,0,1-.1.12.29.29,0,0,1-.16.05.27.27,0,0,1-.21-.09.44.44,0,0,1-.08-.3v-1.57a.43.43,0,0,1,.08-.3.28.28,0,0,1,.21-.09.27.27,0,0,1,.21.09.43.43,0,0,1,.08.3v.68l1.87-1.93-1.87-1.95v.68a.44.44,0,0,1-.08.3.27.27,0,0,1-.21.09.27.27,0,0,1-.21-.09.44.44,0,0,1-.08-.3v-1.57a.43.43,0,0,1,.08-.29.28.28,0,0,1,.37,0,.27.27,0,0,1,.1.12,1,1,0,0,1,0,.31Z"
     id="path2753"
     style="fill:#000000;fill-opacity:1" />
  <path
     class="cls-2"
     d="M8.32,92.47a3,3,0,0,1,2.24.94,3.23,3.23,0,0,1,0,4.54,3,3,0,0,1-2.24.94,3.06,3.06,0,0,1-2.25-.94,3.23,3.23,0,0,1,0-4.54A3,3,0,0,1,8.32,92.47Zm0,.58a2.49,2.49,0,0,0-1.84.77,2.66,2.66,0,0,0,0,3.72,2.57,2.57,0,0,0,3.67,0,2.65,2.65,0,0,0,0-3.72A2.49,2.49,0,0,0,8.32,93Z"
     id="path2755"
     style="fill:#000000;fill-opacity:1" />
  <path
     class="cls-2"
     d="M5.93,87.66h4.76V85.13a.44.44,0,0,1,.08-.29.26.26,0,0,1,.21-.09.27.27,0,0,1,.21.09.43.43,0,0,1,.08.29v4.49a.43.43,0,0,1-.08.29A.27.27,0,0,1,11,90a.26.26,0,0,1-.21-.09.44.44,0,0,1-.08-.29V88.24H5.93v1.24a.43.43,0,0,1-.08.29.28.28,0,0,1-.21.09.27.27,0,0,1-.21-.09.43.43,0,0,1-.08-.29V88.24H4.48a1.65,1.65,0,0,1-1.26-.59,2.23,2.23,0,0,1-.53-1.56,10.82,10.82,0,0,1,.15-1.74A.89.89,0,0,1,3,83.93a.28.28,0,0,1,.2-.07.27.27,0,0,1,.2.08.3.3,0,0,1,.08.22,1.37,1.37,0,0,1,0,.18,11.9,11.9,0,0,0-.16,1.74,1.66,1.66,0,0,0,.37,1.16,1.11,1.11,0,0,0,.84.41h.87V85a.43.43,0,0,1,.08-.29.28.28,0,0,1,.21-.09.27.27,0,0,1,.21.09.43.43,0,0,1,.08.29Z"
     id="path2757"
     style="fill:#000000;fill-opacity:1" />
  <path
     class="cls-2"
     d="M5.72,68.58a.42.42,0,0,1-.29-.08.27.27,0,0,1-.09-.21.28.28,0,0,1,.09-.21.44.44,0,0,1,.3-.08h1a.43.43,0,0,1,.29.08.28.28,0,0,1,.09.21.27.27,0,0,1-.08.19.37.37,0,0,1-.25.09A.92.92,0,0,0,6.1,69a2.58,2.58,0,0,0-.38,1.48A2.5,2.5,0,0,0,6.11,72a.82.82,0,0,0,.66.4.79.79,0,0,0,.68-.48,3.54,3.54,0,0,0,.29-1.24A8.46,8.46,0,0,1,8,69a2.1,2.1,0,0,1,.66-1,1.48,1.48,0,0,1,.92-.32,1.66,1.66,0,0,1,1.3.7,3.22,3.22,0,0,1,.57,2.06,3.47,3.47,0,0,1-.69,2.23,1,1,0,0,1,.3,0,.25.25,0,0,1,.12.1.28.28,0,0,1,0,.16.27.27,0,0,1-.09.21.43.43,0,0,1-.29.08H9.7a.44.44,0,0,1-.29-.08A.26.26,0,0,1,9.32,73a.28.28,0,0,1,.09-.21.31.31,0,0,1,.23-.09.86.86,0,0,0,.53-.16,1.73,1.73,0,0,0,.54-.76,3.37,3.37,0,0,0,.22-1.28,2.74,2.74,0,0,0-.42-1.67,1.15,1.15,0,0,0-.88-.55,1,1,0,0,0-.85.55,4.22,4.22,0,0,0-.43,1.63A6.62,6.62,0,0,1,8,72a1.56,1.56,0,0,1-.53.72,1.27,1.27,0,0,1-.77.26,1.32,1.32,0,0,1-1.17-.72,3.3,3.3,0,0,1-.43-1.73A3.05,3.05,0,0,1,5.72,68.58Z"
     id="path2759"
     style="fill:#000000;fill-opacity:1" />
  <path
     class="cls-2"
     d="M8.44,59v5.85a2.78,2.78,0,0,0,1.79-.93A2.85,2.85,0,0,0,10.91,62a4.67,4.67,0,0,0-.21-1.35,3.46,3.46,0,0,0-.56-1.15.39.39,0,0,1-.1-.23.26.26,0,0,1,.09-.19.28.28,0,0,1,.2-.08.32.32,0,0,1,.23.11,3.07,3.07,0,0,1,.64,1.17,5.1,5.1,0,0,1,.3,1.72,3.38,3.38,0,0,1-1,2.46,3.16,3.16,0,0,1-2.34,1A2.88,2.88,0,0,1,6,64.48a3.17,3.17,0,0,1-.9-2.29,3.12,3.12,0,0,1,.92-2.32A3.2,3.2,0,0,1,8.44,59Zm-.58.58a2.5,2.5,0,0,0-1.54.9,2.83,2.83,0,0,0,0,3.46,2.52,2.52,0,0,0,1.55.9Z"
     id="path2761"
     style="fill:#000000;fill-opacity:1" />
  <path
     class="cls-2"
     d="M6.4,51.75H5.34V50.4a.43.43,0,0,1,.08-.29A.28.28,0,0,1,5.64,50a.27.27,0,0,1,.21.09.43.43,0,0,1,.08.29v.77h5.73a2.11,2.11,0,0,1,1,.25,2.27,2.27,0,0,1,.62.55,3,3,0,0,1,.46.7,2.14,2.14,0,0,1,.14.84v1.63a.44.44,0,0,1-.08.29.26.26,0,0,1-.21.09.28.28,0,0,1-.21-.09.43.43,0,0,1-.08-.29V53.48a1.66,1.66,0,0,0-.26-.91,2,2,0,0,0-.76-.67,1.57,1.57,0,0,0-.73-.15H9.86a2.82,2.82,0,0,1,1.26,2.38,2.75,2.75,0,0,1-.88,2A2.92,2.92,0,0,1,8.13,57,2.91,2.91,0,0,1,6,56.17a2.76,2.76,0,0,1-.87-2A2.83,2.83,0,0,1,6.4,51.75Zm1.73,0a2.33,2.33,0,0,0-1.71.69,2.31,2.31,0,0,0,0,3.31,2.34,2.34,0,0,0,1.71.69,2.35,2.35,0,0,0,1.71-.69,2.31,2.31,0,0,0,0-3.31A2.34,2.34,0,0,0,8.13,51.75Z"
     id="path2763"
     style="fill:#000000;fill-opacity:1" />
  <path
     class="cls-2"
     d="M5.34,47.89h.58a2.06,2.06,0,0,1-.79-1.47,1.32,1.32,0,0,1,.24-.78,1.77,1.77,0,0,1,.71-.56,3,3,0,0,1-.71-.78,1.52,1.52,0,0,1-.24-.79,1.28,1.28,0,0,1,.4-1A1.63,1.63,0,0,1,6.68,42h4v-.49a.44.44,0,0,1,.08-.29.26.26,0,0,1,.21-.09.27.27,0,0,1,.21.09.43.43,0,0,1,.08.29v1.06H6.73a1,1,0,0,0-.72.27.82.82,0,0,0-.29.62,1.19,1.19,0,0,0,.24.66,3.27,3.27,0,0,0,.93.79h3.81v-.48a.44.44,0,0,1,.08-.29.26.26,0,0,1,.21-.09.27.27,0,0,1,.21.09.43.43,0,0,1,.08.29v1.06H6.77a1.08,1.08,0,0,0-.76.27.8.8,0,0,0-.3.6,1.1,1.1,0,0,0,.2.61,3.49,3.49,0,0,0,1,.87h3.81v-.49a.44.44,0,0,1,.08-.29A.26.26,0,0,1,11,47a.27.27,0,0,1,.21.09.43.43,0,0,1,.08.29V49a.43.43,0,0,1-.08.29.27.27,0,0,1-.21.09.26.26,0,0,1-.21-.09.44.44,0,0,1-.08-.29v-.49H5.93V49a.43.43,0,0,1-.08.29.28.28,0,0,1-.21.09.27.27,0,0,1-.21-.09A.43.43,0,0,1,5.34,49Z"
     id="path2765"
     style="fill:#000000;fill-opacity:1" />
  <path
     class="cls-2"
     d="M8.44,33.77v5.85a2.78,2.78,0,0,0,1.79-.93,2.85,2.85,0,0,0,.68-1.94,4.67,4.67,0,0,0-.21-1.35,3.46,3.46,0,0,0-.56-1.15A.39.39,0,0,1,10,34a.26.26,0,0,1,.09-.19.28.28,0,0,1,.2-.08.32.32,0,0,1,.23.11A3.07,3.07,0,0,1,11.19,35a5.1,5.1,0,0,1,.3,1.72,3.38,3.38,0,0,1-1,2.46,3.16,3.16,0,0,1-2.34,1A2.88,2.88,0,0,1,6,39.28,3.17,3.17,0,0,1,5.14,37a3.12,3.12,0,0,1,.92-2.32A3.2,3.2,0,0,1,8.44,33.77Zm-.58.58a2.5,2.5,0,0,0-1.54.9,2.83,2.83,0,0,0,0,3.46,2.52,2.52,0,0,0,1.55.9Z"
     id="path2767"
     style="fill:#000000;fill-opacity:1" />
  <path
     class="cls-2"
     d="M5.34,30.34h.87a4.14,4.14,0,0,1-.84-1.09,2.5,2.5,0,0,1-.23-1.09A2.56,2.56,0,0,1,5.42,27a2,2,0,0,1,.68-.69,1.76,1.76,0,0,1,1-.31h3.62v-.49a.44.44,0,0,1,.08-.29.26.26,0,0,1,.21-.09.27.27,0,0,1,.21.09.43.43,0,0,1,.08.29V27a.44.44,0,0,1-.08.3.27.27,0,0,1-.21.09.26.26,0,0,1-.21-.09.45.45,0,0,1-.08-.3v-.48H7.17a1.36,1.36,0,0,0-1,.44,1.66,1.66,0,0,0-.42,1.19,2,2,0,0,0,.23,1,5.28,5.28,0,0,0,1.14,1.19h3.6v-.65a.44.44,0,0,1,.08-.29A.26.26,0,0,1,11,29.3a.27.27,0,0,1,.21.09.43.43,0,0,1,.08.29v1.87a.43.43,0,0,1-.08.29.27.27,0,0,1-.21.09.26.26,0,0,1-.21-.09.44.44,0,0,1-.08-.29v-.65H5.93v.49a.43.43,0,0,1-.08.29.28.28,0,0,1-.21.09.27.27,0,0,1-.21-.09.43.43,0,0,1-.08-.29Z"
     id="path2769"
     style="fill:#000000;fill-opacity:1" />
  <path
     class="cls-2"
     d="M5.34,21.26V18.14a.43.43,0,0,1,.08-.29.28.28,0,0,1,.21-.09.27.27,0,0,1,.21.09.43.43,0,0,1,.08.29v3.12H9.75a1,1,0,0,0,.83-.4,1.78,1.78,0,0,0,.33-1.17,5.06,5.06,0,0,0-.17-1.26,4.26,4.26,0,0,0-.39-1.05.45.45,0,0,1-.09-.23.26.26,0,0,1,.09-.19.28.28,0,0,1,.2-.08.27.27,0,0,1,.19.09A2.86,2.86,0,0,1,11.23,18a5.43,5.43,0,0,1,.26,1.62,2.5,2.5,0,0,1-.47,1.6,1.54,1.54,0,0,1-1.27.59H5.93V22.9a.43.43,0,0,1-.08.29.28.28,0,0,1-.21.09.27.27,0,0,1-.21-.09.43.43,0,0,1-.08-.29V21.84H3.65a.43.43,0,0,1-.29-.08.27.27,0,0,1-.09-.21.28.28,0,0,1,.09-.21.43.43,0,0,1,.29-.08Z"
     id="path2771"
     style="fill:#000000;fill-opacity:1" />
  <path
     class="cls-2"
     d="M40.29,33v8.12h2a.44.44,0,0,1,.29.08.26.26,0,0,1,.09.21.27.27,0,0,1-.09.21.43.43,0,0,1-.29.08H37.74a.43.43,0,0,1-.29-.08.27.27,0,0,1-.09-.21.26.26,0,0,1,.09-.21.44.44,0,0,1,.29-.08h2V33.77l-1.87.59-.2,0a.26.26,0,0,1-.19-.09.28.28,0,0,1-.09-.2.31.31,0,0,1,.07-.19.66.66,0,0,1,.23-.12Z"
     id="path2773"
     style="fill:#000000;fill-opacity:1" />
  <path
     class="cls-2"
     d="M37.78,81h4.41v-.23a.43.43,0,0,1,.08-.29.28.28,0,0,1,.21-.09.27.27,0,0,1,.21.09.43.43,0,0,1,.08.29v.8H37.22v-.85q1.75-1.57,3.4-3.2a15.36,15.36,0,0,0,1.06-1.11,2.51,2.51,0,0,0,.39-.63,1.48,1.48,0,0,0,.11-.54,1.76,1.76,0,0,0-.59-1.31,2,2,0,0,0-1.44-.57,2.18,2.18,0,0,0-1.33.43,1.93,1.93,0,0,0-.75,1.07.39.39,0,0,1-.1.21.29.29,0,0,1-.19.07.26.26,0,0,1-.19-.08.26.26,0,0,1-.08-.19,1.84,1.84,0,0,1,.36-.89,2.49,2.49,0,0,1,1-.88,2.83,2.83,0,0,1,1.3-.32,2.57,2.57,0,0,1,1.85.74,2.29,2.29,0,0,1,.77,1.69,2,2,0,0,1-.13.73,2.92,2.92,0,0,1-.44.72,14.8,14.8,0,0,1-1.12,1.19q-2,2-3.29,3.1Z"
     id="path2775"
     style="fill:#000000;fill-opacity:1" />
  <path
     class="cls-2"
     d="M80.48,36.94a2.79,2.79,0,0,1,1.21,1,2.27,2.27,0,0,1,.42,1.29A2.44,2.44,0,0,1,81.27,41a2.93,2.93,0,0,1-2.09.79,4.14,4.14,0,0,1-1.53-.31,3.2,3.2,0,0,1-1.11-.64.34.34,0,0,1-.1-.23.27.27,0,0,1,.08-.19.25.25,0,0,1,.19-.08.43.43,0,0,1,.25.1,3.7,3.7,0,0,0,2.24.79,2.36,2.36,0,0,0,1.67-.63,1.87,1.87,0,0,0,.67-1.39,1.78,1.78,0,0,0-.33-1,2.23,2.23,0,0,0-1-.78A3,3,0,0,0,79,37.16a.44.44,0,0,1-.29-.08.26.26,0,0,1-.09-.21.27.27,0,0,1,.09-.21.36.36,0,0,1,.26-.08h.49a1.79,1.79,0,0,0,1.27-.47,1.46,1.46,0,0,0,.5-1.09,1.51,1.51,0,0,0-.53-1.13,1.93,1.93,0,0,0-1.37-.49,2.85,2.85,0,0,0-1.09.21,2,2,0,0,0-.8.56.69.69,0,0,1-.17.17.28.28,0,0,1-.13,0,.28.28,0,0,1-.2-.08.25.25,0,0,1-.08-.19q0-.27.59-.69a3.19,3.19,0,0,1,1.88-.58,2.51,2.51,0,0,1,1.78.65A2.06,2.06,0,0,1,81.8,35a2,2,0,0,1-.33,1.09A2.33,2.33,0,0,1,80.48,36.94Z"
     id="path2777"
     style="fill:#000000;fill-opacity:1" />
  <path
     class="cls-2"
     d="M41.18,119.52H37.37v-.66l3.19-5.52h1.2v5.6h.48a.45.45,0,0,1,.3.08.26.26,0,0,1,.09.21.27.27,0,0,1-.09.21.44.44,0,0,1-.3.08h-.48v1.82h.48a.45.45,0,0,1,.3.08.26.26,0,0,1,.09.21.27.27,0,0,1-.09.21.44.44,0,0,1-.3.08H40.1a.44.44,0,0,1-.3-.08.27.27,0,0,1-.09-.21.26.26,0,0,1,.09-.21.45.45,0,0,1,.3-.08h1.07Zm0-.57v-5h-.3l-2.9,5Z"
     id="path2779"
     style="fill:#000000;fill-opacity:1" />
  <path
     class="cls-2"
     d="M77.71,73.37v2.81a5.93,5.93,0,0,1,1-.32,4,4,0,0,1,.88-.11,2.4,2.4,0,0,1,1.81.76,2.76,2.76,0,0,1,.73,2,3.05,3.05,0,0,1-.82,2.21,2.74,2.74,0,0,1-2.05.85,3.56,3.56,0,0,1-1.57-.36,4.33,4.33,0,0,1-1-.63q-.26-.23-.26-.38a.29.29,0,0,1,.08-.21.26.26,0,0,1,.19-.09A.37.37,0,0,1,77,80a3.24,3.24,0,0,0,2.25,1,2.2,2.2,0,0,0,1.66-.69,2.54,2.54,0,0,0,.66-1.83A2.16,2.16,0,0,0,81,76.92a1.91,1.91,0,0,0-1.44-.59,3.81,3.81,0,0,0-1.79.47.85.85,0,0,1-.31.11.26.26,0,0,1-.2-.08.33.33,0,0,1-.08-.23V72.79h4a.43.43,0,0,1,.29.08.28.28,0,0,1,.09.21.27.27,0,0,1-.09.21.43.43,0,0,1-.29.08Z"
     id="path2781"
     style="fill:#000000;fill-opacity:1" />
  <path
     class="cls-2"
     d="M116.5,38a4.21,4.21,0,0,1,1.1-1.16,2.21,2.21,0,0,1,1.25-.38,2.17,2.17,0,0,1,1.63.76,2.66,2.66,0,0,1,.71,1.88,3,3,0,0,1-.65,1.88,2.13,2.13,0,0,1-1.79.85,2.36,2.36,0,0,1-1.39-.46,3,3,0,0,1-1-1.41,7.19,7.19,0,0,1-.46-2.62,4.72,4.72,0,0,1,.43-2,4.26,4.26,0,0,1,.87-1.26,4.57,4.57,0,0,1,1.27-.89,3.63,3.63,0,0,1,1.58-.35,1.82,1.82,0,0,1,1,.23.31.31,0,0,1,.16.27.28.28,0,0,1-.08.2.25.25,0,0,1-.19.08.45.45,0,0,1-.21-.07,1.58,1.58,0,0,0-.7-.14,3.31,3.31,0,0,0-2.43,1.14,3.8,3.8,0,0,0-1.1,2.72Q116.46,37.5,116.5,38Zm.13.95a3.39,3.39,0,0,0,.82,1.78,1.84,1.84,0,0,0,1.32.53,1.71,1.71,0,0,0,1.31-.6,2.22,2.22,0,0,0,.54-1.55,2.09,2.09,0,0,0-.55-1.48,1.65,1.65,0,0,0-1.24-.59,1.88,1.88,0,0,0-1.28.57A5.18,5.18,0,0,0,116.63,38.93Z"
     id="path2783"
     style="fill:#000000;fill-opacity:1" />
  <path
     class="cls-2"
     d="M42.05,154.32v-.26H37.94v.51a.44.44,0,0,1-.08.29.26.26,0,0,1-.21.09.27.27,0,0,1-.21-.09.43.43,0,0,1-.08-.29v-1.09h5.27v.92l-2.31,7.38a.47.47,0,0,1-.13.24.27.27,0,0,1-.17.06.28.28,0,0,1-.21-.08.26.26,0,0,1-.08-.19.66.66,0,0,1,0-.19Z"
     id="path2785"
     style="fill:#000000;fill-opacity:1" />
  <path
     class="cls-2"
     d="M80.44,117.47a2.59,2.59,0,0,1,1.08.92,2.23,2.23,0,0,1,.37,1.23,2.38,2.38,0,0,1-.77,1.76,2.69,2.69,0,0,1-3.72,0,2.38,2.38,0,0,1-.77-1.76,2.22,2.22,0,0,1,.37-1.22,2.62,2.62,0,0,1,1.09-.93,3,3,0,0,1-.92-.75,2.05,2.05,0,0,1-.4-1.22,2.23,2.23,0,0,1,.73-1.65,2.53,2.53,0,0,1,3.51,0,2.24,2.24,0,0,1,.72,1.65,2,2,0,0,1-.4,1.22A2.81,2.81,0,0,1,80.44,117.47Zm.87,2.16a1.76,1.76,0,0,0-.59-1.32,2.19,2.19,0,0,0-2.93,0,1.76,1.76,0,0,0-.59,1.31,1.83,1.83,0,0,0,.59,1.35,2.14,2.14,0,0,0,2.92,0A1.82,1.82,0,0,0,81.32,119.63Zm-.16-4.11a1.7,1.7,0,0,0-.55-1.27,2,2,0,0,0-2.69,0,1.69,1.69,0,0,0-.55,1.26,1.55,1.55,0,0,0,.54,1.17,2.07,2.07,0,0,0,2.71,0A1.54,1.54,0,0,0,81.16,115.51Z"
     id="path2787"
     style="fill:#000000;fill-opacity:1" />
  <path
     class="cls-2"
     d="M120.58,76.61a3.31,3.31,0,0,1-1.06,1.18,2.28,2.28,0,0,1-1.25.4,2.17,2.17,0,0,1-1.15-.34,2.38,2.38,0,0,1-.89-1,3.07,3.07,0,0,1-.33-1.38,3.11,3.11,0,0,1,.65-1.92,2.08,2.08,0,0,1,1.75-.86,2.3,2.3,0,0,1,1.42.49,3.11,3.11,0,0,1,1,1.41,7.58,7.58,0,0,1,.46,2.75,4.64,4.64,0,0,1-.39,2,4,4,0,0,1-.76,1.06,4.34,4.34,0,0,1-1.13.83,4,4,0,0,1-1.79.43,1.94,1.94,0,0,1-1-.23.32.32,0,0,1-.18-.27A.26.26,0,0,1,116,81a.28.28,0,0,1,.2-.08.62.62,0,0,1,.24.08,1.39,1.39,0,0,0,.62.13,3.41,3.41,0,0,0,2.5-1,3.57,3.57,0,0,0,1-2.63Q120.61,77.13,120.58,76.61Zm-.11-1a4,4,0,0,0-.9-1.89,1.78,1.78,0,0,0-1.25-.5,1.68,1.68,0,0,0-1.28.62,2.27,2.27,0,0,0-.55,1.58A2.22,2.22,0,0,0,117,77a1.66,1.66,0,0,0,1.25.61,1.62,1.62,0,0,0,.8-.22,2.55,2.55,0,0,0,.74-.66A9,9,0,0,0,120.47,75.66Z"
     id="path2789"
     style="fill:#000000;fill-opacity:1" />
  <path
     class="cls-2"
     d="M75.41,153.48v8.12h2a.44.44,0,0,1,.29.08.26.26,0,0,1,.09.21.27.27,0,0,1-.09.21.43.43,0,0,1-.29.08H72.87a.43.43,0,0,1-.29-.08.27.27,0,0,1-.09-.21.26.26,0,0,1,.09-.21.44.44,0,0,1,.29-.08h2v-7.33l-1.87.59-.2,0a.26.26,0,0,1-.19-.09.28.28,0,0,1-.09-.2.31.31,0,0,1,.07-.19.66.66,0,0,1,.23-.12Z"
     id="path2791"
     style="fill:#000000;fill-opacity:1" />
  <path
     class="cls-2"
     d="M81.06,161.6h4.41v-.23a.43.43,0,0,1,.08-.29.28.28,0,0,1,.21-.09.27.27,0,0,1,.21.09.43.43,0,0,1,.08.29v.8H80.5v-.85q1.75-1.57,3.4-3.2A15.36,15.36,0,0,0,85,157a2.51,2.51,0,0,0,.39-.63,1.48,1.48,0,0,0,.11-.54,1.76,1.76,0,0,0-.59-1.31,2,2,0,0,0-1.44-.57,2.18,2.18,0,0,0-1.33.43,1.93,1.93,0,0,0-.75,1.07.39.39,0,0,1-.1.21.29.29,0,0,1-.19.07.26.26,0,0,1-.19-.08.26.26,0,0,1-.08-.19,1.84,1.84,0,0,1,.36-.89,2.49,2.49,0,0,1,1-.88,2.83,2.83,0,0,1,1.3-.32,2.57,2.57,0,0,1,1.85.74,2.29,2.29,0,0,1,.77,1.69,2,2,0,0,1-.13.73,2.92,2.92,0,0,1-.44.72,14.8,14.8,0,0,1-1.12,1.19q-2,2-3.29,3.1Z"
     id="path2793"
     style="fill:#000000;fill-opacity:1" />
  <path
     class="cls-2"
     d="M114.54,113.22v8.12h2a.44.44,0,0,1,.29.08.26.26,0,0,1,.09.21.27.27,0,0,1-.09.21.43.43,0,0,1-.29.08H112a.43.43,0,0,1-.29-.08.27.27,0,0,1-.09-.21.26.26,0,0,1,.09-.21.44.44,0,0,1,.29-.08h2V114l-1.87.59-.2,0a.26.26,0,0,1-.19-.09.28.28,0,0,1-.09-.2.31.31,0,0,1,.07-.19.66.66,0,0,1,.23-.12Z"
     id="path2795"
     style="fill:#000000;fill-opacity:1" />
  <path
     class="cls-2"
     d="M123.84,117.25a2.79,2.79,0,0,1,1.21,1,2.27,2.27,0,0,1,.42,1.29,2.44,2.44,0,0,1-.84,1.82,2.93,2.93,0,0,1-2.09.79,4.14,4.14,0,0,1-1.53-.31,3.2,3.2,0,0,1-1.11-.64.34.34,0,0,1-.1-.23.27.27,0,0,1,.08-.19.25.25,0,0,1,.19-.08.43.43,0,0,1,.25.1,3.7,3.7,0,0,0,2.24.79,2.36,2.36,0,0,0,1.67-.63,1.87,1.87,0,0,0,.67-1.39,1.78,1.78,0,0,0-.33-1,2.23,2.23,0,0,0-1-.78,3,3,0,0,0-1.26-.28.44.44,0,0,1-.29-.08.26.26,0,0,1-.09-.21.27.27,0,0,1,.09-.21.36.36,0,0,1,.26-.08h.49a1.79,1.79,0,0,0,1.27-.47,1.46,1.46,0,0,0,.5-1.09,1.51,1.51,0,0,0-.53-1.13,1.93,1.93,0,0,0-1.37-.49,2.85,2.85,0,0,0-1.09.21,2,2,0,0,0-.8.56.69.69,0,0,1-.17.17.28.28,0,0,1-.13,0,.28.28,0,0,1-.2-.08.25.25,0,0,1-.08-.19q0-.27.59-.69a3.19,3.19,0,0,1,1.88-.58,2.51,2.51,0,0,1,1.78.65,2.06,2.06,0,0,1,.7,1.55,2,2,0,0,1-.33,1.09A2.33,2.33,0,0,1,123.84,117.25Z"
     id="path2797"
     style="fill:#000000;fill-opacity:1" />
  <path
     class="cls-2"
     d="M114.63,153.37v8.12h2a.44.44,0,0,1,.29.08.26.26,0,0,1,.09.21.27.27,0,0,1-.09.21.43.43,0,0,1-.29.08h-4.51a.43.43,0,0,1-.29-.08.27.27,0,0,1-.09-.21.26.26,0,0,1,.09-.21.44.44,0,0,1,.29-.08h2v-7.33l-1.87.59-.2,0a.26.26,0,0,1-.19-.09.28.28,0,0,1-.09-.2.31.31,0,0,1,.07-.19.66.66,0,0,1,.23-.12Z"
     id="path2799"
     style="fill:#000000;fill-opacity:1" />
  <path
     class="cls-2"
     d="M123.93,157.62a2.59,2.59,0,0,1,1.08.92,2.23,2.23,0,0,1,.37,1.23,2.38,2.38,0,0,1-.77,1.76,2.69,2.69,0,0,1-3.72,0,2.38,2.38,0,0,1-.77-1.76,2.22,2.22,0,0,1,.37-1.22,2.62,2.62,0,0,1,1.09-.93,3,3,0,0,1-.92-.75,2.05,2.05,0,0,1-.4-1.22A2.23,2.23,0,0,1,121,154a2.53,2.53,0,0,1,3.51,0,2.24,2.24,0,0,1,.72,1.65,2,2,0,0,1-.4,1.22A2.81,2.81,0,0,1,123.93,157.62Zm.87,2.16a1.76,1.76,0,0,0-.59-1.32,2.19,2.19,0,0,0-2.93,0,1.76,1.76,0,0,0-.59,1.31,1.83,1.83,0,0,0,.59,1.35,2.14,2.14,0,0,0,2.92,0A1.82,1.82,0,0,0,124.8,159.78Zm-.16-4.11a1.7,1.7,0,0,0-.55-1.27,2,2,0,0,0-2.69,0,1.69,1.69,0,0,0-.55,1.26,1.55,1.55,0,0,0,.54,1.17,2.07,2.07,0,0,0,2.71,0A1.54,1.54,0,0,0,124.65,155.66Z"
     id="path2801"
     style="fill:#000000;fill-opacity:1" />
  <circle
     class="cls-2"
     cx="150.41"
     cy="151.26"
     r="3.5"
     transform="translate(-62.9 150.66) rotate(-45)"
     id="circle2803"
     style="fill:#000000;fill-opacity:1" />
  <circle
     class="cls-2"
     cx="164.44"
     cy="165.29"
     r="3.5"
     transform="translate(-68.71 164.69) rotate(-45)"
     id="circle2805"
     style="fill:#000000;fill-opacity:1" />
  <circle
     class="cls-2"
     cx="157.43"
     cy="158.27"
     r="3.5"
     transform="translate(-65.81 157.68) rotate(-45)"
     id="circle2807"
     style="fill:#000000;fill-opacity:1" />
  <path
     class="cls-2"
     d="M153.7,34.41h0l-1.36.73-.2-.8,1.7-.91h.9v7.8h-1Z"
     id="path2809"
     style="fill:#000000;fill-opacity:1" />
  <path
     class="cls-2"
     d="M162.74,37.24c0,2.65-1,4.11-2.71,4.11-1.52,0-2.55-1.43-2.58-4s1.13-4.05,2.71-4.05S162.74,34.75,162.74,37.24Zm-4.23.12c0,2,.62,3.18,1.58,3.18s1.59-1.26,1.59-3.25-.49-3.18-1.58-3.18C159.18,34.11,158.51,35.23,158.51,37.36Z"
     id="path2811"
     style="fill:#000000;fill-opacity:1" />
  <path
     class="cls-2"
     d="M153.61,74.26h0l-1.36.73-.2-.8,1.7-.91h.9v7.8h-1Z"
     id="path2813"
     style="fill:#000000;fill-opacity:1" />
  <path
     class="cls-2"
     d="M160.74,81.07V79h-3.62v-.7l3.48-5h1.14v4.85h1.09V79h-1.09v2.12Zm0-3v-2.6q0-.61,0-1.22h0c-.24.46-.43.79-.65,1.15l-1.91,2.65v0Z"
     id="path2815"
     style="fill:#000000;fill-opacity:1" />
  <path
     class="cls-2"
     d="M153.69,114.72h0l-1.36.73-.2-.8,1.7-.91h.9v7.8h-1Z"
     id="path2817"
     style="fill:#000000;fill-opacity:1" />
  <path
     class="cls-2"
     d="M158.17,120.78a4.4,4.4,0,0,0,.85,0,2.94,2.94,0,0,0,1.63-.76,3.42,3.42,0,0,0,1-2.07h0a2.29,2.29,0,0,1-1.83.84,2.26,2.26,0,0,1-2.3-2.39,2.67,2.67,0,0,1,2.66-2.77c1.59,0,2.58,1.3,2.58,3.29a4.93,4.93,0,0,1-1.34,3.66,3.9,3.9,0,0,1-2.27,1,4.93,4.93,0,0,1-1,.06Zm.38-4.49a1.5,1.5,0,0,0,1.5,1.65,1.74,1.74,0,0,0,1.54-.82.69.69,0,0,0,.1-.38c0-1.33-.49-2.35-1.59-2.35C159.19,114.4,158.55,115.2,158.55,116.3Z"
     id="path2819"
     style="fill:#000000;fill-opacity:1" />
</svg>
