<svg id="Layer_1" data-name="Layer 1" xmlns="http://www.w3.org/2000/svg" viewBox="0 0 425.2 141.73"><defs><style>.cls-1{font-size:13.97px;}.cls-1,.cls-2,.cls-3,.cls-4,.cls-5,.cls-6,.cls-7{fill:#fff;}.cls-1,.cls-2,.cls-3,.cls-4,.cls-5,.cls-6{font-family:CourierNewPS-BoldMT, Courier New;font-weight:700;}.cls-2{font-size:11.82px;}.cls-3{font-size:9.67px;}.cls-4{font-size:9.67px;}.cls-5{font-size:7.52px;}.cls-6{font-size:5.37px;}.cls-8{fill:none;stroke:#fff;stroke-miterlimit:10;}</style></defs><title>infinity_trees</title><text class="cls-1" transform="translate(213.89 19.19)">0</text><text class="cls-2" transform="translate(132.6 42.03)">0.0</text><text class="cls-2" transform="translate(284.86 42.03)">0.1</text><text class="cls-3" transform="translate(69.12 64.86)">0.00</text><text class="cls-3" transform="translate(160.48 64.86)">0.01</text><text class="cls-4" transform="translate(251.89 64.88) rotate(0.1)">0.10</text><text class="cls-3" transform="translate(343.18 64.86)">0.11</text><text class="cls-5" transform="translate(25.94 87.7)">0.000</text><text class="cls-5" transform="translate(76.69 87.7)">0.001</text><text class="cls-5" transform="translate(127.45 87.7)">0.010</text><text class="cls-5" transform="translate(279.7 87.7)">0.100</text><text class="cls-5" transform="translate(228.95 87.7)">0.101</text><text class="cls-5" transform="translate(330.43 87.7)">0.110</text><text class="cls-5" transform="translate(381.2 87.7)">0.111</text><text class="cls-5" transform="translate(178.2 87.7)">0.011</text><text class="cls-6" transform="translate(1.42 110.48)">0.0000</text><text class="cls-6" transform="translate(28.28 110.48)">0.0001</text><text class="cls-6" transform="translate(55.15 110.48)">0.0010</text><text class="cls-6" transform="translate(82.02 110.48)">0.0011</text><text class="cls-6" transform="translate(108.89 110.48)">0.0100</text><text class="cls-6" transform="translate(135.76 110.48)">0.0101</text><text class="cls-6" transform="translate(162.63 110.48)">0.0110</text><text class="cls-6" transform="translate(191.75 110.48)">0.111</text><text class="cls-6" transform="translate(243.23 110.48)">0.1011</text><text class="cls-6" transform="translate(216.36 110.48)">0.1010</text><text class="cls-6" transform="translate(270.1 110.48)">0.1000</text><text class="cls-6" transform="translate(296.97 110.48)">0.1001</text><text class="cls-6" transform="translate(323.84 110.48)">0.1100</text><text class="cls-6" transform="translate(350.71 110.48)">0.1101</text><text class="cls-6" transform="translate(377.57 110.48)">0.1110</text><text class="cls-6" transform="translate(404.44 110.48)">0.1111</text><circle class="cls-7" cx="11.09" cy="121.46" r="1.61"/><circle class="cls-7" cx="11.09" cy="126.83" r="1.61"/><circle class="cls-7" cx="11.09" cy="132.2" r="1.61"/><circle class="cls-7" cx="37.96" cy="121.46" r="1.61"/><circle class="cls-7" cx="37.96" cy="126.83" r="1.61"/><circle class="cls-7" cx="37.96" cy="132.2" r="1.61"/><circle class="cls-7" cx="64.82" cy="121.46" r="1.61"/><circle class="cls-7" cx="64.82" cy="126.83" r="1.61"/><circle class="cls-7" cx="64.82" cy="132.2" r="1.61"/><circle class="cls-7" cx="91.69" cy="121.46" r="1.61"/><circle class="cls-7" cx="91.69" cy="126.83" r="1.61"/><circle class="cls-7" cx="91.69" cy="132.2" r="1.61"/><circle class="cls-7" cx="118.56" cy="121.46" r="1.61"/><circle class="cls-7" cx="118.56" cy="126.83" r="1.61"/><circle class="cls-7" cx="118.56" cy="132.2" r="1.61"/><circle class="cls-7" cx="145.43" cy="121.46" r="1.61"/><circle class="cls-7" cx="145.43" cy="126.83" r="1.61"/><circle class="cls-7" cx="145.43" cy="132.2" r="1.61"/><circle class="cls-7" cx="172.29" cy="121.46" r="1.61"/><circle class="cls-7" cx="172.29" cy="126.83" r="1.61"/><circle class="cls-7" cx="172.29" cy="132.2" r="1.61"/><circle class="cls-7" cx="199.81" cy="121.46" r="1.61"/><circle class="cls-7" cx="199.81" cy="126.83" r="1.61"/><circle class="cls-7" cx="199.81" cy="132.2" r="1.61"/><circle class="cls-7" cx="226.03" cy="121.46" r="1.61"/><circle class="cls-7" cx="226.03" cy="126.83" r="1.61"/><circle class="cls-7" cx="226.03" cy="132.2" r="1.61"/><circle class="cls-7" cx="252.9" cy="121.46" r="1.61"/><circle class="cls-7" cx="252.9" cy="126.83" r="1.61"/><circle class="cls-7" cx="252.9" cy="132.2" r="1.61"/><circle class="cls-7" cx="279.77" cy="121.46" r="1.61"/><circle class="cls-7" cx="279.77" cy="126.83" r="1.61"/><circle class="cls-7" cx="279.77" cy="132.2" r="1.61"/><circle class="cls-7" cx="306.64" cy="121.46" r="1.61"/><circle class="cls-7" cx="306.64" cy="126.83" r="1.61"/><circle class="cls-7" cx="306.64" cy="132.2" r="1.61"/><circle class="cls-7" cx="333.51" cy="121.46" r="1.61"/><circle class="cls-7" cx="333.51" cy="126.83" r="1.61"/><circle class="cls-7" cx="333.51" cy="132.2" r="1.61"/><circle class="cls-7" cx="360.37" cy="121.46" r="1.61"/><circle class="cls-7" cx="360.37" cy="126.83" r="1.61"/><circle class="cls-7" cx="360.37" cy="132.2" r="1.61"/><circle class="cls-7" cx="387.24" cy="121.46" r="1.61"/><circle class="cls-7" cx="387.24" cy="126.83" r="1.61"/><circle class="cls-7" cx="387.24" cy="132.2" r="1.61"/><circle class="cls-7" cx="414.11" cy="121.46" r="1.61"/><circle class="cls-7" cx="414.11" cy="126.83" r="1.61"/><circle class="cls-7" cx="414.11" cy="132.2" r="1.61"/><line class="cls-8" x1="218.08" y1="21.78" x2="143.24" y2="32.44"/><line class="cls-8" x1="218.08" y1="21.78" x2="295.49" y2="32.44"/><line class="cls-8" x1="143.24" y1="44.62" x2="80.73" y2="55.27"/><line class="cls-8" x1="143.24" y1="44.62" x2="172.08" y2="55.27"/><line class="cls-8" x1="295.49" y1="44.62" x2="263.43" y2="55.27"/><line class="cls-8" x1="295.49" y1="44.62" x2="350.64" y2="55.27"/><line class="cls-8" x1="80.73" y1="67.45" x2="37.22" y2="81.16"/><line class="cls-8" x1="80.73" y1="67.45" x2="89.6" y2="81.16"/><line class="cls-8" x1="172.08" y1="67.45" x2="138.73" y2="81.16"/><line class="cls-8" x1="172.08" y1="67.45" x2="189.48" y2="81.16"/><line class="cls-8" x1="263.43" y1="67.45" x2="240.23" y2="81.16"/><line class="cls-8" x1="263.43" y1="67.45" x2="290.98" y2="81.16"/><line class="cls-8" x1="354.78" y1="67.45" x2="341.71" y2="81.16"/><line class="cls-8" x1="354.78" y1="67.45" x2="392.48" y2="81.16"/><line class="cls-8" x1="37.22" y1="90.29" x2="11.09" y2="105.52"/><line class="cls-8" x1="37.22" y1="90.29" x2="37.96" y2="105.52"/><line class="cls-8" x1="89.6" y1="90.29" x2="64.82" y2="105.52"/><line class="cls-8" x1="89.6" y1="90.29" x2="91.69" y2="105.52"/><line class="cls-8" x1="138.73" y1="90.29" x2="118.56" y2="105.52"/><line class="cls-8" x1="138.73" y1="90.29" x2="145.43" y2="104.93"/><line class="cls-8" x1="189.48" y1="90.29" x2="172.29" y2="105.52"/><line class="cls-8" x1="189.48" y1="90.29" x2="199.81" y2="105.52"/><line class="cls-8" x1="240.23" y1="90.29" x2="226.03" y2="105.52"/><line class="cls-8" x1="240.23" y1="90.29" x2="252.9" y2="105.52"/><line class="cls-8" x1="290.98" y1="90.29" x2="279.77" y2="105.52"/><line class="cls-8" x1="290.98" y1="90.29" x2="306.64" y2="105.52"/><line class="cls-8" x1="341.71" y1="90.29" x2="333.51" y2="105.52"/><line class="cls-8" x1="341.71" y1="90.29" x2="360.37" y2="105.52"/><line class="cls-8" x1="392.48" y1="90.29" x2="387.24" y2="105.52"/><line class="cls-8" x1="392.48" y1="90.29" x2="414.11" y2="105.52"/></svg>